<svg xmlns="http://www.w3.org/2000/svg" viewBox="0 0 24 24" fill="none" stroke="url(#favicon-gradient)" stroke-width="2" stroke-linecap="round" stroke-linejoin="round">
  <defs>
    <linearGradient id="favicon-gradient" x1="0%" y1="0%" x2="100%" y2="100%">
      <stop offset="0%" stop-color="#6366f1" />
      <stop offset="50%" stop-color="#a855f7" />
      <stop offset="100%" stop-color="#ec4899" />
    </linearGradient>
  </defs>

  {/* Prancheta / Suporte */}
  <path d="M16 4h2a2 2 0 0 1 2 2v14a2 2 0 0 1-2 2H6a2 2 0 0 1-2-2V6a2 2 0 0 1 2-2h2" />
  
  {/* Presilha */}
  <rect x="9" y="2" width="6" height="3" rx="1" fill="url(#favicon-gradient)" stroke="none" />

  {/* Item 1 da lista: Checkmark + Convidado */}
  <path d="M7 10l1.5 1.5 2.5-2.5" />
  <circle cx="15.5" cy="9.5" r="1.2" fill="url(#favicon-gradient)" stroke="none" />
  <path d="M13.5 13c0-.8.5-1.2 1-1.2h2c.5 0 1 .4 1 1.2" />

  {/* Item 2 da lista: Checkmark + Convidado */}
  <path d="M7 16l1.5 1.5 2.5-2.5" />
  <circle cx="15.5" cy="15.5" r="1.2" fill="url(#favicon-gradient)" stroke="none" />
  <path d="M13.5 19c0-.8.5-1.2 1-1.2h2c.5 0 1 .4 1 1.2" />
</svg>